<svg xmlns="http://www.w3.org/2000/svg" viewBox="0 0 66 63.25">
	<path d="M63.25,50.87H55.93a9.57,9.57,0,0,0-18.36,0H2.75a2.75,2.75,0,0,0,0,5.5H37.57a9.56,9.56,0,0,0,18.36,0h7.32a2.75,2.75,0,0,0,0-5.5Zm-16.5,6.88a4.13,4.13,0,1,1,4.12-4.13A4.14,4.14,0,0,1,46.75,57.75Z"/><path d="M2.75,12.37H37.57a9.56,9.56,0,0,0,18.36,0h7.32a2.75,2.75,0,1,0,0-5.5H55.93a9.57,9.57,0,0,0-18.36,0H2.75a2.75,2.75,0,0,0,0,5.5Zm44-6.87a4.13,4.13,0,1,1-4.13,4.12A4.13,4.13,0,0,1,46.75,5.5Z"/><path d="M63.25,28.87H28.43a9.57,9.57,0,0,0-18.36,0H2.75a2.75,2.75,0,1,0,0,5.5h7.32a9.56,9.56,0,0,0,18.36,0H63.25a2.75,2.75,0,1,0,0-5.5Zm-44,6.88a4.13,4.13,0,1,1,4.12-4.13A4.14,4.14,0,0,1,19.25,35.75Z"/>
</svg>