<svg xmlns="http://www.w3.org/2000/svg" width="24" height="18" viewBox="0 0 24 18"><path fill="#808191" d="M9.5,17.75A8.75,8.75,0,1,1,17.05,4.62a.75.75,0,1,1-1.3.76A7.24,7.24,0,1,0,9.5,16.25a7.14,7.14,0,0,0,6.25-3.63.75.75,0,0,1,1.3.76A8.65,8.65,0,0,1,9.5,17.75ZM19,12.53a.76.76,0,0,1-.07-1l.07-.08L20.7,9.75H8.5a.75.75,0,0,1-.1-1.49H20.7L19,6.53a.76.76,0,0,1-.07-1L19,5.47a.75.75,0,0,1,1-.07l.08.07,3,3,.06.07L23,8.47l.09.12,0,.06,0,0,0,.09v0a.66.66,0,0,1,0,.21.37.37,0,0,1,0,.11v0s0,0,0,.07v0l0,.06s0,0,0,0l0,.07,0,0a.27.27,0,0,1-.07.08l-3,3a.75.75,0,0,1-1.06,0Z"/></svg>