<svg xmlns="http://www.w3.org/2000/svg" viewBox="0 0 22 20.17" fill="currentColor">
	<g><g>
		<path fill="currentColor" d="M16,8.25a6,6,0,1,0,6,6,6,6,0,0,0-6-6Zm2,8a.91.91,0,0,1-1.29,0l-1.38-1.37a.92.92,0,0,1-.26-.65V11.92a.92.92,0,1,1,1.83,0v1.91l1.1,1.11a.91.91,0,0,1,0,1.29Z"/>
		<path fill="currentColor" d="M17.42,0H2.75A2.76,2.76,0,0,0,0,2.75V5A.92.92,0,0,0,.92,6h.46a1.38,1.38,0,0,1,0,2.75H.92A.92.92,0,0,0,0,9.63v2.29a2.76,2.76,0,0,0,2.75,2.75H8.26c0-.16,0-.31,0-.46a7.87,7.87,0,0,1,.13-1.38H2.75a.92.92,0,0,1-.92-.91V10.5A3.2,3.2,0,0,0,4.58,7.33,3.21,3.21,0,0,0,1.83,4.16V2.75a.93.93,0,0,1,.92-.92H17.42a.92.92,0,0,1,.91.92V4.16a3.22,3.22,0,0,0-2.62,2.27H16a7.85,7.85,0,0,1,1.61.16,1.18,1.18,0,0,1,.17-.22,1.37,1.37,0,0,1,1-.4h.46A.92.92,0,0,0,20.17,5V2.75A2.76,2.76,0,0,0,17.42,0Z"/>
		<path fill="currentColor" d="M7.33,3.44a.92.92,0,0,1-.91-.92V1.15a.92.92,0,1,1,1.83,0V2.52a.92.92,0,0,1-.92.92Z"/>
		<path fill="currentColor" d="M7.33,9.56a.91.91,0,0,1-.91-.91V6A.92.92,0,1,1,8.25,6V8.65a.92.92,0,0,1-.92.91Z"/>
		<path fill="currentColor" d="M7.33,14.44a.92.92,0,0,1-.91-.92V12.15a.92.92,0,1,1,1.83,0v1.37a.92.92,0,0,1-.92.92Z"/>
	</g></g>
</svg>